<svg width="85" height="15" viewBox="0 0 85 15" fill="none" xmlns="http://www.w3.org/2000/svg">
<path d="M72.7734 5.22296C72.7734 5.00654 72.845 4.82579 72.9894 4.68072C73.1338 4.53564 73.3099 4.46191 73.5165 4.46191C73.7314 4.46191 73.911 4.53445 74.0542 4.68072C74.1986 4.82579 74.2702 5.00773 74.2702 5.22296V6.77836H74.7139L75.8784 4.84244C75.9371 4.72352 76.0228 4.62958 76.1332 4.56299C76.2447 4.4964 76.3738 4.46191 76.5218 4.46191C76.7284 4.46191 76.9033 4.53088 77.043 4.66882C77.1838 4.80676 77.2543 4.98038 77.2543 5.18967C77.2543 5.25626 77.2449 5.32404 77.2261 5.39063C77.2073 5.45722 77.1838 5.51787 77.1545 5.57019L75.99 7.42763C76.1966 7.73324 76.3973 8.04123 76.5887 8.35041C76.7812 8.65958 76.9702 8.97589 77.1545 9.29577C77.2285 9.42301 77.266 9.54906 77.266 9.6763C77.266 9.88559 77.1944 10.0604 77.05 10.2019C76.9056 10.3434 76.7295 10.4148 76.5229 10.4148C76.375 10.4148 76.2471 10.3791 76.1402 10.3089C76.0334 10.2376 75.9465 10.1424 75.8796 10.0235C75.7094 9.71792 75.5286 9.40042 75.3361 9.07222C75.1436 8.74401 74.9405 8.41938 74.7257 8.09831H74.2702V9.6656C74.2702 9.87488 74.1986 10.0521 74.0542 10.1971C73.9098 10.3422 73.7302 10.4159 73.5165 10.4159C73.3099 10.4159 73.1338 10.3434 72.9894 10.1971C72.845 10.0521 72.7734 9.87488 72.7734 9.6656V5.22296ZM82.1718 5.13378C82.1718 5.33474 82.0979 5.54403 81.9499 5.76046L79.6315 8.99492H81.5179C81.6952 8.99492 81.849 9.05794 81.9781 9.18518C82.1072 9.31242 82.1718 9.46463 82.1718 9.64419C82.1718 9.83089 82.1072 9.98785 81.9781 10.1139C81.849 10.2411 81.6952 10.3042 81.5179 10.3042H78.3448C78.2779 10.3042 78.2063 10.2875 78.1288 10.2542C78.0514 10.2209 77.9786 10.1745 77.9128 10.1139C77.8459 10.0544 77.7908 9.97834 77.7461 9.8844C77.7015 9.79164 77.6792 9.68819 77.6792 9.57641C77.6792 9.40517 77.7274 9.25534 77.8236 9.12929L80.209 5.79375H78.4892C78.312 5.79375 78.1605 5.73073 78.0338 5.60349C77.9081 5.47625 77.8448 5.32404 77.8448 5.14448C77.8448 4.95778 77.9081 4.80082 78.0338 4.67477C78.1594 4.54753 78.3108 4.48451 78.4892 4.48451H81.4745C81.6295 4.48451 81.7856 4.53445 81.9406 4.63553C82.0943 4.7366 82.1718 4.9019 82.1718 5.13378Z" fill="#682383"/>
<path fill-rule="evenodd" clip-rule="evenodd" d="M77.1068 1C80.6168 1 83.4635 3.88367 83.4635 7.4392C83.4635 10.9947 80.6168 13.8784 77.1068 13.8784C73.5967 13.8784 70.75 10.9947 70.75 7.4392C70.75 3.88367 73.5967 1 77.1068 1Z" stroke="#C0087F" stroke-width="1.5" stroke-miterlimit="2.4142"/>
<path d="M71.4958 9C71.4006 9.0026 71.3137 9.02344 71.2409 9.06771C71.1681 9.11198 71.1064 9.17188 71.0644 9.2474C71.0224 9.32292 71 9.40625 71 9.5C71.0028 9.59115 71.0224 9.67187 71.0644 9.7474C71.1064 9.82292 71.1653 9.88542 71.2409 9.92969C71.3137 9.97657 71.4006 9.9974 71.4958 10C71.5938 9.9974 71.6835 9.97657 71.7563 9.92969C71.8319 9.88282 71.8908 9.82292 71.9356 9.7474C71.9776 9.67187 72 9.59115 72 9.5C72 9.41407 71.9776 9.33333 71.9384 9.25781C71.8992 9.18229 71.8431 9.1224 71.7675 9.07552C71.6919 9.02604 71.6022 9.0026 71.4958 9Z" fill="#682383"/>
<path d="M5.92241 9.83488C5.92241 10.0513 5.84728 10.232 5.69584 10.3771C5.54441 10.5222 5.36597 10.5959 5.16054 10.5959C4.94688 10.5959 4.7661 10.5234 4.61936 10.3771C4.47262 10.232 4.39866 10.0501 4.39866 9.83488V3.81306H1.52492V9.83488C1.52492 10.0513 1.45096 10.232 1.30422 10.3771C1.15748 10.5222 0.976698 10.5959 0.763046 10.5959C0.549393 10.5959 0.36861 10.5234 0.22187 10.3771C0.0739567 10.232 0 10.0513 0 9.83488V3.07461C0 2.87364 0.070435 2.70003 0.210131 2.55376C0.349827 2.40869 0.520045 2.33496 0.718437 2.33496H5.18167C5.39532 2.33496 5.57258 2.4075 5.71228 2.55376C5.85197 2.69884 5.92241 2.87245 5.92241 3.07461V9.83488ZM12.2979 7.90965C12.2979 8.32704 12.2627 8.69925 12.1935 9.02388C12.123 9.34852 12.0092 9.62678 11.8507 9.85747C11.6922 10.0894 11.4844 10.2642 11.2262 10.3831C10.9679 10.502 10.6474 10.5626 10.2647 10.5626C10.0581 10.5626 9.85385 10.5329 9.65194 10.4734C9.45003 10.414 9.27394 10.3319 9.1272 10.2273V11.7946C9.1272 12.0039 9.05324 12.1811 8.9065 12.3261C8.75859 12.4712 8.5825 12.5449 8.37589 12.5449C8.16224 12.5449 7.98498 12.4724 7.84528 12.3261C7.70559 12.1811 7.63515 12.0039 7.63515 11.7946V6.31026C7.63515 6.11643 7.60698 5.97968 7.5518 5.90119C7.49663 5.82271 7.42854 5.74661 7.34754 5.67169C7.28885 5.6265 7.23837 5.56942 7.19845 5.49808C7.15854 5.42673 7.13741 5.33992 7.13741 5.23528C7.13741 5.01885 7.20785 4.8607 7.34754 4.75962C7.48724 4.65854 7.6645 4.6086 7.87815 4.6086C7.99554 4.6086 8.11528 4.62881 8.23737 4.67043C8.35946 4.71205 8.47098 4.7727 8.57428 4.85475C8.65528 4.92967 8.72102 4.99983 8.77268 5.06761C8.96403 4.91778 9.18472 4.80481 9.43594 4.72632C9.68598 4.64784 9.93368 4.6086 10.1767 4.6086C10.9127 4.6086 11.4516 4.81194 11.7896 5.21863C12.1289 5.62531 12.2979 6.21989 12.2979 7.00353V7.90965ZM10.8165 6.89056C10.8165 6.55522 10.7484 6.30312 10.6122 6.13546C10.476 5.96779 10.2424 5.88336 9.9102 5.88336C9.78459 5.88336 9.65429 5.90952 9.51811 5.96184C9.38194 6.01416 9.25163 6.08908 9.12603 6.1854V8.93826C9.23637 9.05718 9.3655 9.14755 9.51224 9.20701C9.66016 9.26647 9.79985 9.2962 9.93251 9.2962C10.2565 9.2962 10.4854 9.20106 10.6181 9.0108C10.7507 8.82054 10.8165 8.5506 10.8165 8.19981V6.89056ZM16.6954 7.01423C16.6954 6.66343 16.618 6.40182 16.463 6.23059C16.3304 6.06649 16.1132 5.98444 15.8115 5.98444C15.5168 5.98444 15.3032 6.06649 15.1705 6.23059C15.0156 6.38755 14.9381 6.64798 14.9381 7.01423V8.18911C14.9381 8.55417 15.0156 8.81578 15.1705 8.97275C15.3032 9.13685 15.5168 9.2189 15.8115 9.2189C16.1132 9.2189 16.3304 9.13685 16.463 8.97275C16.618 8.80865 16.6954 8.54704 16.6954 8.18911V7.01423ZM18.1863 8.20099C18.1863 8.5292 18.1405 8.83719 18.0478 9.12377C17.9562 9.41154 17.8118 9.66126 17.617 9.87412C17.4221 10.087 17.1756 10.257 16.8762 10.3831C16.5769 10.5091 16.2223 10.5733 15.8103 10.5733C15.3983 10.5733 15.0426 10.5103 14.7444 10.3831C14.4462 10.2558 14.1997 10.087 14.0036 9.87412C13.8088 9.66126 13.6644 9.41154 13.5728 9.12377C13.4813 8.836 13.4343 8.5292 13.4343 8.20099V7.00353C13.4343 6.68246 13.4801 6.37685 13.5728 6.08551C13.6644 5.79417 13.8088 5.54089 14.0036 5.32446C14.1985 5.10804 14.445 4.9368 14.7444 4.80956C15.0426 4.68233 15.3983 4.6193 15.8103 4.6193C16.2223 4.6193 16.578 4.68233 16.8762 4.80956C17.1744 4.9368 17.4209 5.10804 17.617 5.32446C17.8118 5.54089 17.9562 5.79417 18.0478 6.08551C18.1394 6.37685 18.1863 6.68246 18.1863 7.00353V8.20099ZM23.0146 9.1856V5.98444H21.7656V7.90965C21.7656 8.22359 21.7327 8.48401 21.6658 8.6933C21.6001 8.90259 21.5261 9.06669 21.4451 9.1856H23.0146ZM23.7882 4.67519C23.9796 4.67519 24.1475 4.74178 24.2907 4.87616C24.4339 5.01053 24.5067 5.17463 24.5067 5.36846V9.18442H24.9704C25.1617 9.18442 25.3272 9.25101 25.4681 9.38538C25.6078 9.51975 25.6782 9.68385 25.6782 9.87768V11.2202C25.6782 11.4295 25.6066 11.6079 25.4622 11.7577C25.319 11.9064 25.1394 11.9813 24.9269 11.9813C24.7203 11.9813 24.5454 11.9064 24.4022 11.7577C24.259 11.6091 24.1862 11.4295 24.1862 11.2202V10.4925H20.3968V11.2202C20.3968 11.4295 20.3228 11.6079 20.1761 11.7577C20.0294 11.9064 19.8521 11.9813 19.6455 11.9813C19.4318 11.9813 19.2546 11.9064 19.1149 11.7577C18.9752 11.6091 18.9047 11.4295 18.9047 11.2202V9.87887C18.9047 9.68504 18.9752 9.52094 19.1149 9.38657C19.2546 9.25219 19.4201 9.1856 19.6126 9.1856C19.8486 9.1856 20.0176 9.08096 20.1209 8.87167C20.2242 8.66238 20.2759 8.37937 20.2759 8.02144V5.36846C20.2759 5.17463 20.3475 5.01053 20.4919 4.87616C20.6351 4.74178 20.803 4.67519 20.9943 4.67519H23.7882ZM28.12 8.13322V9.27479H29.0368C29.2059 9.27479 29.3315 9.23436 29.4125 9.15112C29.4935 9.06907 29.5346 8.95729 29.5346 8.81578V8.62552C29.5346 8.46855 29.4853 8.34726 29.3855 8.26164C29.2857 8.17602 29.1519 8.13322 28.9816 8.13322H28.12ZM28.12 5.90595V6.99164H28.7833C28.9816 6.99164 29.1237 6.9524 29.2082 6.87391C29.2927 6.79543 29.335 6.69316 29.335 6.56593V6.33047C29.335 6.21156 29.2986 6.11048 29.2246 6.02843C29.1507 5.94638 29.0298 5.90476 28.8596 5.90476H28.12V5.90595ZM27.3792 10.4948C27.1656 10.4948 26.9872 10.4199 26.8439 10.2713C26.7007 10.1226 26.6279 9.94666 26.6279 9.74569V5.42554C26.6279 5.21625 26.6996 5.03788 26.8439 4.88805C26.9872 4.7394 27.1668 4.66449 27.3792 4.66449H28.9042C29.2505 4.66449 29.5428 4.70968 29.7823 4.79886C30.0217 4.88805 30.2166 5.00577 30.368 5.15085C30.5195 5.29592 30.6298 5.46478 30.6991 5.65504C30.7695 5.84531 30.8036 6.04151 30.8036 6.24248V6.42204C30.8036 6.61587 30.7672 6.81208 30.6932 7.00948C30.6193 7.20687 30.469 7.36146 30.2401 7.47443C30.5195 7.6088 30.7167 7.78955 30.8317 8.01668C30.9456 8.2438 31.0031 8.46261 31.0031 8.6719V8.87286C31.0031 9.09642 30.9679 9.3069 30.8987 9.50548C30.8282 9.70288 30.7202 9.87531 30.5723 10.0204C30.4256 10.1655 30.233 10.282 29.9983 10.3676C29.7623 10.4532 29.4794 10.496 29.1472 10.496H27.3792V10.4948ZM32.3179 5.38035C32.3179 5.17106 32.3919 4.99388 32.5386 4.84881C32.6854 4.70373 32.8626 4.63 33.0692 4.63C33.2758 4.63 33.4507 4.70254 33.594 4.84881C33.7372 4.99388 33.81 5.17106 33.81 5.38035V7.6742L35.788 5.6705V5.37916C35.788 5.16987 35.8596 4.99269 36.004 4.84762C36.1472 4.70254 36.3221 4.62881 36.5288 4.62881C36.7424 4.62881 36.9208 4.70135 37.0641 4.84762C37.2073 4.99269 37.2801 5.16987 37.2801 5.37916V9.82298C37.2801 10.0394 37.2085 10.2202 37.0641 10.3652C36.9208 10.5103 36.7412 10.584 36.5288 10.584C36.3221 10.584 36.1472 10.5115 36.004 10.3652C35.8608 10.2202 35.788 10.0382 35.788 9.82298V7.55053L33.81 9.55424V9.82298C33.81 10.0394 33.7384 10.2202 33.594 10.3652C33.4507 10.5103 33.2758 10.584 33.0692 10.584C32.8626 10.584 32.6865 10.5115 32.5386 10.3652C32.3919 10.2202 32.3179 10.0382 32.3179 9.82298V5.38035ZM42.7036 9.82298C42.7036 10.0394 42.6296 10.2202 42.4829 10.3652C42.3361 10.5103 42.1589 10.584 41.9522 10.584C41.7456 10.584 41.5695 10.5115 41.4216 10.3652C41.2749 10.2202 41.2009 10.0382 41.2009 9.82298V8.26759H40.7372C40.5306 8.58152 40.3322 8.9014 40.1409 9.2296C39.9495 9.55781 39.7688 9.87887 39.5997 10.1916C39.46 10.4532 39.2499 10.5828 38.9705 10.5828C38.7568 10.5828 38.5796 10.5103 38.4399 10.364C38.3002 10.219 38.2298 10.0454 38.2298 9.8432C38.2298 9.70169 38.2626 9.57802 38.3295 9.47338C38.5209 9.13804 38.7111 8.81816 38.8989 8.51612C39.0867 8.21408 39.2804 7.90609 39.4788 7.59334L38.3413 5.7359C38.3049 5.67645 38.2767 5.61461 38.2579 5.55159C38.2392 5.48856 38.2298 5.42673 38.2298 5.36727C38.2298 5.15798 38.3002 4.98318 38.4399 4.84167C38.5796 4.70016 38.7568 4.62881 38.9705 4.62881C39.1172 4.62881 39.2452 4.66211 39.352 4.72989C39.4589 4.79648 39.5422 4.89042 39.6009 5.00934L40.7607 6.94526H41.2021V5.38987C41.2021 5.18058 41.2761 5.0022 41.4228 4.85237C41.5707 4.70373 41.7468 4.62881 41.9534 4.62881C42.16 4.62881 42.3361 4.70373 42.484 4.85237C42.6308 5.00102 42.7047 5.18058 42.7047 5.38987V6.94526H43.1356L44.3071 5.00934C44.4468 4.75605 44.657 4.62881 44.9363 4.62881C45.143 4.62881 45.3155 4.70016 45.4552 4.84167C45.5949 4.98318 45.6653 5.15917 45.6653 5.36727C45.6653 5.49451 45.636 5.61699 45.5773 5.73709L44.4175 7.59453C44.6159 7.90847 44.8131 8.21526 45.0091 8.51731C45.2052 8.81935 45.3942 9.13804 45.5785 9.47457C45.6078 9.52689 45.6313 9.58516 45.6501 9.64818C45.6689 9.7112 45.6783 9.77661 45.6783 9.84439C45.6783 10.0454 45.6078 10.219 45.4681 10.3652C45.3284 10.5103 45.1512 10.584 44.9375 10.584C44.6581 10.584 44.448 10.4532 44.3083 10.1928C44.1393 9.87887 43.9561 9.55899 43.7613 9.23079C43.5664 8.90259 43.3656 8.58152 43.159 8.26878H42.7059V9.82298H42.7036ZM51.0677 7.50654C51.0677 7.6635 51.0184 7.79193 50.9186 7.89301C50.8188 7.99408 50.6991 8.04403 50.5594 8.04403H47.9193V8.26759C47.9193 8.60292 47.9932 8.86454 48.14 9.05123C48.2867 9.23793 48.5191 9.33068 48.8361 9.33068C49.1155 9.33068 49.3444 9.31046 49.5217 9.26884C49.6989 9.22722 49.8821 9.16658 50.0746 9.08453C50.2213 9.02507 50.3669 9.0322 50.5113 9.10712C50.6545 9.18203 50.7531 9.30095 50.8036 9.46505C50.84 9.63629 50.8317 9.78731 50.7754 9.91811C50.7202 10.0489 50.6228 10.1476 50.4831 10.2142C50.1732 10.3415 49.8738 10.4306 49.5827 10.483C49.2916 10.5353 49.0169 10.5614 48.7598 10.5614C48.3254 10.5614 47.9604 10.4948 47.6657 10.3605C47.371 10.2261 47.1316 10.0465 46.9473 9.82298C46.763 9.59943 46.6303 9.34019 46.5493 9.04528C46.4683 8.75038 46.4272 8.43882 46.4272 8.11062V7.07012C46.4272 6.74192 46.473 6.42799 46.5657 6.12951C46.6573 5.83104 46.7993 5.56942 46.9907 5.34587C47.182 5.12231 47.4239 4.94275 47.715 4.80838C48.0061 4.674 48.3536 4.60741 48.7586 4.60741C49.1789 4.60741 49.5357 4.67281 49.8304 4.80362C50.1251 4.93442 50.3622 5.11161 50.543 5.33516C50.7237 5.55872 50.8564 5.81795 50.9409 6.11286C51.0254 6.40777 51.0677 6.71932 51.0677 7.04753V7.50654ZM49.632 6.77878C49.632 6.45771 49.5674 6.21156 49.4383 6.04033C49.3092 5.86909 49.0944 5.78347 48.7915 5.78347C48.4968 5.78347 48.2773 5.87147 48.1341 6.04627C47.9909 6.22107 47.9181 6.46604 47.9181 6.77997V6.92505H49.6308V6.77878H49.632ZM56.9244 9.84558C56.9244 10.062 56.8492 10.2416 56.6978 10.3831C56.5464 10.5246 56.3679 10.5959 56.1625 10.5959C55.9559 10.5959 55.781 10.5246 55.6378 10.3831C55.4945 10.2416 55.4218 10.062 55.4218 9.84558V8.13322H53.8088V9.84558C53.8088 10.062 53.7348 10.2416 53.5881 10.3831C53.4414 10.5246 53.2676 10.5959 53.0692 10.5959C52.8556 10.5959 52.6748 10.5246 52.5281 10.3831C52.3813 10.2416 52.3074 10.062 52.3074 9.84558V5.39105C52.3074 5.19009 52.3813 5.0141 52.5281 4.86545C52.6748 4.71681 52.8556 4.64189 53.0692 4.64189C53.2676 4.64189 53.4414 4.71681 53.5881 4.86545C53.7348 5.0141 53.8088 5.19009 53.8088 5.39105V6.81208H55.4218V5.39105C55.4218 5.19009 55.4934 5.0141 55.6378 4.86545C55.781 4.71681 55.9559 4.64189 56.1625 4.64189C56.3691 4.64189 56.5476 4.71681 56.6978 4.86545C56.8492 5.0141 56.9244 5.19009 56.9244 5.39105V9.84558ZM58.4152 5.38035C58.4152 5.17106 58.4892 4.99388 58.6359 4.84881C58.7827 4.70373 58.9599 4.63 59.1666 4.63C59.3732 4.63 59.5481 4.70254 59.6913 4.84881C59.8345 4.99388 59.9073 5.17106 59.9073 5.38035V7.6742L61.8853 5.6705V5.37916C61.8853 5.16987 61.957 4.99269 62.1013 4.84762C62.2446 4.70254 62.4195 4.62881 62.6261 4.62881C62.8397 4.62881 63.0182 4.70135 63.1614 4.84762C63.3046 4.99269 63.3774 5.16987 63.3774 5.37916V9.82298C63.3774 10.0394 63.3058 10.2202 63.1614 10.3652C63.0182 10.5103 62.8386 10.584 62.6261 10.584C62.4195 10.584 62.2446 10.5115 62.1013 10.3652C61.9581 10.2202 61.8853 10.0382 61.8853 9.82298V7.55053L59.9073 9.55424V9.82298C59.9073 10.0394 59.8357 10.2202 59.6913 10.3652C59.5481 10.5103 59.3732 10.584 59.1666 10.584C58.9599 10.584 58.7839 10.5115 58.6359 10.3652C58.4892 10.2202 58.4152 10.0382 58.4152 9.82298V5.38035ZM69.3432 7.50654C69.3432 7.6635 69.2939 7.79193 69.1941 7.89301C69.0944 7.99408 68.9746 8.04403 68.8349 8.04403H66.1948V8.26759C66.1948 8.60292 66.2688 8.86454 66.4155 9.05123C66.5622 9.23793 66.7947 9.33068 67.1116 9.33068C67.391 9.33068 67.6199 9.31046 67.7972 9.26884C67.9745 9.22722 68.1576 9.16658 68.3501 9.08453C68.4968 9.02507 68.6424 9.0322 68.7868 9.10712C68.93 9.18203 69.0286 9.30095 69.0791 9.46505C69.1155 9.63629 69.1073 9.78731 69.0509 9.91811C68.9958 10.0489 68.8983 10.1476 68.7586 10.2142C68.4487 10.3415 68.1494 10.4306 67.8582 10.483C67.5671 10.5353 67.2924 10.5614 67.0353 10.5614C66.601 10.5614 66.2359 10.4948 65.9412 10.3605C65.6466 10.2261 65.4071 10.0465 65.2228 9.82298C65.0385 9.59943 64.9058 9.34019 64.8248 9.04528C64.7438 8.75038 64.7027 8.43882 64.7027 8.11062V7.07012C64.7027 6.74192 64.7485 6.42799 64.8413 6.12951C64.9328 5.83104 65.0749 5.56942 65.2662 5.34587C65.4576 5.12231 65.6994 4.94275 65.9905 4.80838C66.2817 4.674 66.6291 4.60741 67.0341 4.60741C67.4544 4.60741 67.8113 4.67281 68.1059 4.80362C68.4006 4.93442 68.6377 5.11161 68.8185 5.33516C68.9993 5.55872 69.1319 5.81795 69.2165 6.11286C69.301 6.40777 69.3432 6.71932 69.3432 7.04753V7.50654ZM67.9064 6.77878C67.9064 6.45771 67.8418 6.21156 67.7127 6.04033C67.5835 5.86909 67.3687 5.78347 67.0658 5.78347C66.7712 5.78347 66.5517 5.87147 66.4084 6.04627C66.2652 6.22107 66.1924 6.46604 66.1924 6.77997V6.92505H67.9052V6.77878H67.9064Z" fill="#682383"/>
</svg>
