<svg width="204" height="200" viewBox="0 0 204 200" fill="none" xmlns="http://www.w3.org/2000/svg">
<path d="M204 100C204 119.778 198.018 139.112 186.81 155.557C175.602 172.002 159.672 184.819 141.034 192.388C122.396 199.957 101.887 201.937 82.1008 198.078C62.3148 194.22 44.1401 184.696 29.8752 170.711C15.6102 156.725 5.89564 138.907 1.95995 119.509C-1.97574 100.111 0.0441947 80.0042 7.76433 61.7316C15.4845 43.459 28.5581 27.8412 45.3319 16.853C62.1057 5.86489 81.8263 0 102 0V99.8449L204 100Z" fill="url(#paint0_linear_121_1412)"/>
<path d="M102 180C147.287 180 184 143.735 184 99C184 54.2649 147.287 18 102 18C56.7126 18 20 54.2649 20 99C20 143.735 56.7126 180 102 180Z" fill="white"/>
<path d="M99.75 148.625C100.993 148.626 102.184 149.121 103.063 150C103.942 150.878 104.436 152.07 104.438 153.312C104.438 153.727 104.602 154.124 104.895 154.417C105.188 154.71 105.586 154.875 106 154.875C106.414 154.875 106.812 154.71 107.105 154.417C107.398 154.124 107.562 153.727 107.562 153.312C107.564 152.07 108.058 150.878 108.937 150C109.816 149.121 111.007 148.626 112.25 148.625H124.75C125.579 148.624 126.373 148.295 126.959 147.709C127.545 147.123 127.874 146.329 127.875 145.5V120.5C127.874 119.671 127.545 118.877 126.959 118.291C126.373 117.705 125.579 117.376 124.75 117.375H115.375C113.304 117.377 111.318 118.201 109.853 119.666C108.389 121.13 107.565 123.116 107.562 125.188V140.812C107.562 141.227 107.398 141.624 107.105 141.917C106.812 142.21 106.414 142.375 106 142.375C105.586 142.375 105.188 142.21 104.895 141.917C104.602 141.624 104.438 141.227 104.438 140.812V125.188C104.435 123.116 103.611 121.13 102.147 119.666C100.682 118.201 98.6963 117.377 96.625 117.375H87.25C86.4215 117.376 85.6272 117.705 85.0413 118.291C84.4555 118.877 84.1259 119.671 84.125 120.5V145.5C84.1259 146.329 84.4555 147.123 85.0413 147.709C85.6272 148.295 86.4215 148.624 87.25 148.625H99.75Z" fill="#61BAA2"/>
<defs>
<linearGradient id="paint0_linear_121_1412" x1="9408.48" y1="14038" x2="22556.3" y2="14038" gradientUnits="userSpaceOnUse">
<stop stop-color="#60B9A2"/>
<stop offset="1" stop-color="#6A82FB"/>
</linearGradient>
</defs>
</svg>
