<svg width="204" height="200" viewBox="0 0 204 200" fill="white" xmlns="http://www.w3.org/2000/svg">
<path d="M204 100C204 119.778 198.018 139.112 186.81 155.557C175.602 172.002 159.672 184.819 141.034 192.388C122.396 199.957 101.887 201.937 82.1008 198.078C62.3148 194.22 44.1401 184.696 29.8752 170.711C15.6102 156.725 5.89564 138.907 1.95995 119.509C-1.97574 100.111 0.0441947 80.0042 7.76433 61.7316C15.4845 43.459 28.5581 27.8412 45.3319 16.853C62.1057 5.86489 81.8263 0 102 0V99.8138L204 100Z" fill="url(#paint0_linear_121_1426)"/>
<path d="M102 182C147.287 182 184 145.735 184 101C184 56.265 147.287 20 102 20C56.7126 20 20 56.265 20 101C20 145.735 56.7126 182 102 182Z" fill="white"/>
<path d="M121.625 113.25H90.3752C89.5467 113.251 88.7523 113.58 88.1664 114.166C87.5806 114.752 87.2511 115.546 87.2502 116.375V147.625C87.2511 148.454 87.5806 149.248 88.1664 149.834C88.7523 150.42 89.5467 150.749 90.3752 150.75H121.625C122.454 150.749 123.248 150.42 123.834 149.834C124.42 149.248 124.749 148.454 124.75 147.625V116.375C124.749 115.546 124.42 114.752 123.834 114.166C123.248 113.58 122.454 113.251 121.625 113.25ZM115.673 128.442L104.213 139.379C103.923 139.657 103.537 139.812 103.135 139.812C102.733 139.812 102.346 139.657 102.056 139.379L96.3277 133.91C96.179 133.769 96.0597 133.599 95.9766 133.412C95.8935 133.224 95.8482 133.022 95.8433 132.816C95.8385 132.611 95.8741 132.407 95.9483 132.215C96.0224 132.024 96.1336 131.849 96.2754 131.701C96.4172 131.552 96.5869 131.433 96.7748 131.35C96.9627 131.268 97.165 131.223 97.3703 131.218C97.5755 131.214 97.7797 131.25 97.971 131.324C98.1623 131.399 98.3371 131.51 98.4853 131.652L103.135 136.089L113.515 126.183C113.663 126.041 113.838 125.93 114.029 125.855C114.221 125.781 114.425 125.745 114.63 125.749C114.835 125.754 115.038 125.799 115.226 125.882C115.414 125.964 115.583 126.083 115.725 126.232C115.867 126.38 115.978 126.555 116.052 126.747C116.126 126.938 116.162 127.142 116.157 127.348C116.152 127.553 116.107 127.755 116.024 127.943C115.941 128.131 115.821 128.3 115.673 128.442H115.673Z" fill="#B1D86A"/>
<defs>
<linearGradient id="paint0_linear_121_1426" x1="9408.48" y1="14038" x2="22556.3" y2="14038" gradientUnits="userSpaceOnUse">
<stop stop-color="#B0D769"/>
<stop offset="1" stop-color="#6A82FB"/>
</linearGradient>
</defs>
</svg>
