<svg width="204" height="200" viewBox="0 0 204 200" fill="none" xmlns="http://www.w3.org/2000/svg">
<path d="M204 100C204 119.778 198.018 139.112 186.81 155.557C175.602 172.002 159.672 184.819 141.034 192.388C122.396 199.957 101.887 201.937 82.1008 198.078C62.3148 194.22 44.1401 184.696 29.8752 170.711C15.6102 156.725 5.89564 138.907 1.95995 119.509C-1.97574 100.111 0.0441947 80.0042 7.76433 61.7316C15.4845 43.459 28.5581 27.8412 45.3319 16.853C62.1057 5.86489 81.8263 0 102 0V99.8449L204 100Z" fill="url(#paint0_linear_121_1377)"/>
<path d="M102 180C147.287 180 184 143.735 184 99C184 54.2649 147.287 18 102 18C56.7126 18 20 54.2649 20 99C20 143.735 56.7126 180 102 180Z" fill="white"/>
<path d="M130.901 133.477V124.422H124.898C124.4 122.345 123.569 120.358 122.435 118.537L126.54 114.463L120.074 108.125L115.918 112.149C114.06 111.037 112.034 110.222 109.915 109.734V104H100.679V109.835C98.5595 110.323 96.533 111.138 94.6751 112.249L90.5189 108.225L84.0023 114.563L88.1585 118.638C87.0244 120.459 86.193 122.446 85.6956 124.523H80V133.577H85.8495C86.347 135.655 87.1784 137.641 88.3125 139.463L84.1562 143.537L90.6728 150.076L94.8291 146.002C96.6869 147.114 98.7134 147.929 100.833 148.416V154.201H110.069V148.165C112.188 147.677 114.214 146.862 116.072 145.75L120.228 149.825L126.694 143.436L122.589 139.362C123.669 137.531 124.448 135.545 124.898 133.477H130.901ZM105.245 139.513C103.114 139.513 101.031 138.893 99.2588 137.733C97.4868 136.572 96.1057 134.922 95.2901 132.992C94.4745 131.062 94.2612 128.938 94.6769 126.889C95.0927 124.84 96.1189 122.957 97.6259 121.48C99.1329 120.003 101.053 118.997 103.143 118.589C105.233 118.182 107.4 118.391 109.369 119.19C111.338 119.99 113.021 121.344 114.205 123.081C115.389 124.818 116.021 126.86 116.021 128.95C116.021 131.717 114.914 134.373 112.938 136.349C110.961 138.324 108.273 139.46 105.451 139.513H105.245ZM105.245 132.823C104.197 132.823 103.192 132.415 102.452 131.688C101.711 130.962 101.294 129.977 101.294 128.95C101.294 127.922 101.711 126.937 102.452 126.211C103.192 125.484 104.197 125.076 105.245 125.076C106.293 125.076 107.298 125.484 108.039 126.211C108.78 126.937 109.196 127.922 109.196 128.95C109.196 129.977 108.78 130.962 108.039 131.688C107.298 132.415 106.293 132.823 105.245 132.823Z" fill="url(#paint1_linear_121_1377)"/>
<defs>
<linearGradient id="paint0_linear_121_1377" x1="9408.48" y1="14038" x2="22556.3" y2="14038" gradientUnits="userSpaceOnUse">
<stop stop-color="#5373C7"/>
<stop offset="1" stop-color="#6A82FB"/>
</linearGradient>
<linearGradient id="paint1_linear_121_1377" x1="2427.56" y1="3627.6" x2="5708.14" y2="3627.6" gradientUnits="userSpaceOnUse">
<stop stop-color="#5474C7"/>
<stop offset="1" stop-color="#6A82FB"/>
</linearGradient>
</defs>
</svg>
