<svg width="204" height="200" viewBox="0 0 204 200" fill="none" xmlns="http://www.w3.org/2000/svg">
<path d="M204 100C204 119.778 198.018 139.112 186.81 155.557C175.602 172.002 159.672 184.819 141.034 192.388C122.396 199.957 101.887 201.937 82.1008 198.078C62.3148 194.22 44.1401 184.696 29.8752 170.711C15.6102 156.725 5.89564 138.907 1.95995 119.509C-1.97574 100.111 0.0441947 80.0042 7.76433 61.7316C15.4845 43.459 28.5581 27.8412 45.3319 16.853C62.1057 5.86489 81.8263 0 102 0V99.8138L204 100Z" fill="url(#paint0_linear_121_1384)"/>
<path d="M102 182C147.287 182 184 145.735 184 101C184 56.265 147.287 20 102 20C56.7126 20 20 56.265 20 101C20 145.735 56.7126 182 102 182Z" fill="white"/>
<path d="M106 114.689C102.472 114.69 99.0052 115.609 95.9405 117.357C92.8757 119.104 90.3188 121.62 88.5216 124.655C86.7243 127.691 85.7486 131.143 85.6905 134.67C85.6324 138.198 86.4939 141.68 88.1902 144.773L86.5194 150.614C86.3658 151.15 86.3585 151.717 86.4982 152.257C86.6378 152.797 86.9194 153.289 87.3136 153.684C87.7078 154.078 88.2003 154.359 88.74 154.499C89.2797 154.639 89.8469 154.631 90.3829 154.478L96.2255 152.812C98.9407 154.302 101.961 155.151 105.055 155.295C108.149 155.439 111.234 154.874 114.076 153.642C116.918 152.41 119.441 150.545 121.451 148.189C123.462 145.833 124.907 143.049 125.676 140.048C126.445 137.048 126.519 133.912 125.89 130.879C125.261 127.846 123.947 124.997 122.048 122.55C120.15 120.103 117.717 118.123 114.935 116.76C112.154 115.398 109.098 114.689 106 114.689H106ZM96.625 137.344C96.1615 137.344 95.7084 137.206 95.3229 136.949C94.9375 136.691 94.6371 136.325 94.4597 135.897C94.2823 135.469 94.2359 134.997 94.3263 134.543C94.4168 134.088 94.64 133.67 94.9678 133.343C95.2955 133.015 95.7132 132.792 96.1678 132.701C96.6224 132.611 97.0937 132.657 97.522 132.835C97.9502 133.012 98.3163 133.312 98.5738 133.698C98.8313 134.083 98.9688 134.536 98.9688 135C98.9688 135.622 98.7219 136.218 98.2823 136.657C97.8428 137.097 97.2466 137.344 96.625 137.344V137.344ZM106 137.344C105.536 137.344 105.083 137.206 104.698 136.949C104.313 136.691 104.012 136.325 103.835 135.897C103.657 135.469 103.611 134.997 103.701 134.543C103.792 134.088 104.015 133.67 104.343 133.343C104.671 133.015 105.088 132.792 105.543 132.701C105.997 132.611 106.469 132.657 106.897 132.835C107.325 133.012 107.691 133.312 107.949 133.698C108.206 134.083 108.344 134.536 108.344 135C108.344 135.622 108.097 136.218 107.657 136.657C107.218 137.097 106.622 137.344 106 137.344ZM115.375 137.344C114.911 137.344 114.458 137.206 114.073 136.949C113.688 136.691 113.387 136.325 113.21 135.897C113.032 135.469 112.986 134.997 113.076 134.543C113.167 134.088 113.39 133.67 113.718 133.343C114.046 133.015 114.463 132.792 114.918 132.701C115.372 132.611 115.844 132.657 116.272 132.835C116.7 133.012 117.066 133.312 117.324 133.698C117.581 134.083 117.719 134.536 117.719 135C117.719 135.622 117.472 136.218 117.032 136.657C116.593 137.097 115.997 137.344 115.375 137.344Z" fill="#189BD7"/>
<defs>
<linearGradient id="paint0_linear_121_1384" x1="9408.48" y1="14038" x2="22556.3" y2="14038" gradientUnits="userSpaceOnUse">
<stop stop-color="#179AD6"/>
<stop offset="1" stop-color="#6A82FB"/>
</linearGradient>
</defs>
</svg>
