<svg width="204" height="199" viewBox="0 0 204 199" fill="none" xmlns="http://www.w3.org/2000/svg">
<path d="M204 99.3765C204.025 119.061 198.064 138.31 186.871 154.689C175.679 171.068 159.757 183.841 141.121 191.39C122.486 198.94 101.973 200.928 82.1785 197.103C62.3841 193.278 44.1976 183.811 29.9199 169.901C15.6423 155.99 5.91519 138.261 1.96923 118.957C-1.97674 99.6524 0.0358033 79.64 7.75221 61.4516C15.4686 43.2631 28.5421 27.7161 45.3187 16.7774C62.0952 5.83872 81.8209 1.51598e-05 102 0V99.2221L204 99.3765Z" fill="url(#paint0_linear_121_1303)"/>
<path d="M183.307 112.554C190.608 68.4625 160.065 26.9172 115.088 19.7602C70.1108 12.6031 27.7311 42.5444 20.4303 86.636C13.1294 130.727 43.6722 172.273 88.6494 179.43C133.627 186.587 176.006 156.645 183.307 112.554Z" fill="white"/>
<path fill-rule="evenodd" clip-rule="evenodd" d="M85.166 126.229C85.166 116.254 93.1667 108.167 103.036 108.167C107.776 108.167 112.321 110.07 115.672 113.457C119.023 116.845 120.906 121.439 120.906 126.229C120.906 136.205 112.905 144.292 103.036 144.292C93.1667 144.292 85.166 136.205 85.166 126.229ZM120.61 140.781L125.932 145.077H126.025C127.102 146.165 127.102 147.93 126.025 149.018C124.948 150.106 123.202 150.106 122.126 149.018L117.709 143.956C117.291 143.535 117.057 142.964 117.057 142.368C117.057 141.772 117.291 141.201 117.709 140.781C118.514 139.981 119.805 139.981 120.61 140.781Z" fill="#C02AAB"/>
<defs>
<linearGradient id="paint0_linear_121_1303" x1="9408.48" y1="13967.8" x2="22556.3" y2="13967.8" gradientUnits="userSpaceOnUse">
<stop stop-color="#C029AA"/>
<stop offset="1" stop-color="#6A82FB"/>
</linearGradient>
</defs>
</svg>
