<svg width="204" height="200" viewBox="0 0 204 200" fill="white" xmlns="http://www.w3.org/2000/svg">
<path d="M204 100C204 119.778 198.018 139.112 186.81 155.557C175.602 172.002 159.672 184.819 141.034 192.388C122.396 199.957 101.887 201.937 82.1008 198.078C62.3148 194.22 44.1401 184.696 29.8752 170.711C15.6102 156.725 5.89564 138.907 1.95995 119.509C-1.97574 100.111 0.0441947 80.0042 7.76433 61.7316C15.4845 43.459 28.5581 27.8412 45.3319 16.853C62.1057 5.86489 81.8263 0 102 0V99.8449L204 100Z" fill="url(#paint0_linear_121_1438)"/>
<path d="M102 180C147.287 180 184 143.735 184 99C184 54.2649 147.287 18 102 18C56.7126 18 20 54.2649 20 99C20 143.735 56.7126 180 102 180Z" fill="white"/>
<path fill-rule="evenodd" clip-rule="evenodd" d="M116.791 115.188C116.791 112.417 119.041 110.167 121.812 110.167C124.583 110.167 126.833 112.417 126.833 115.188C126.833 117.958 124.583 120.208 121.812 120.208C119.041 120.208 116.791 117.958 116.791 115.188ZM108.77 136.749L114.791 128.98L114.708 129.021C115.041 128.563 115.104 127.98 114.874 127.459C114.647 126.938 114.145 126.584 113.606 126.542C113.041 126.48 112.481 126.73 112.145 127.188L107.106 133.709L101.333 129.167C100.979 128.896 100.562 128.79 100.145 128.834C99.7306 128.896 99.3556 129.124 99.1035 129.457L92.9389 137.48L92.8118 137.667C92.4577 138.332 92.6243 139.186 93.2493 139.646C93.541 139.834 93.8535 139.959 94.2077 139.959C94.6889 139.98 95.1452 139.728 95.4368 139.334L100.666 132.603L106.604 137.063L106.791 137.186C107.458 137.54 108.291 137.376 108.77 136.749ZM113.187 113.876C113.104 114.396 113.062 114.917 113.062 115.438C113.062 120.126 116.854 123.915 121.52 123.915C122.041 123.915 122.541 123.855 123.062 123.771V140.582C123.062 147.646 118.895 151.834 111.812 151.834H96.4181C89.3327 151.834 85.166 147.646 85.166 140.582V125.167C85.166 118.084 89.3327 113.876 96.4181 113.876H113.187Z" fill="#FFF634"/>
<defs>
<linearGradient id="paint0_linear_121_1438" x1="9408.48" y1="14038" x2="22556.3" y2="14038" gradientUnits="userSpaceOnUse">
<stop stop-color="#FFF533"/>
<stop offset="1" stop-color="#6A82FB"/>
</linearGradient>
</defs>
</svg>
