<svg width="204" height="199" viewBox="0 0 204 199" fill="none" xmlns="http://www.w3.org/2000/svg">
<path d="M204 99.3765C204.025 119.061 198.064 138.31 186.871 154.689C175.679 171.068 159.757 183.841 141.121 191.39C122.486 198.94 101.973 200.928 82.1785 197.103C62.3841 193.278 44.1976 183.811 29.9199 169.901C15.6423 155.99 5.91519 138.261 1.96923 118.957C-1.97674 99.6525 0.0358033 79.64 7.75221 61.4516C15.4686 43.2631 28.5421 27.7161 45.3187 16.7774C62.0952 5.83872 81.8209 1.51598e-05 102 0V99.2221L204 99.3765Z" fill="url(#paint0_linear_121_1396)"/>
<path d="M183.307 112.554C190.608 68.4625 160.065 26.9172 115.088 19.7602C70.1108 12.6031 27.7311 42.5444 20.4303 86.636C13.1294 130.727 43.6722 172.273 88.6494 179.43C133.627 186.587 176.006 156.645 183.307 112.554Z" fill="white"/>
<path d="M127.875 131.437C127.872 128.952 126.884 126.569 125.126 124.811C123.368 123.054 120.986 122.065 118.5 122.062H110.691C110.589 122.062 100.46 121.928 90.8223 113.844C90.3668 113.462 89.8115 113.217 89.2218 113.139C88.632 113.061 88.0322 113.153 87.4929 113.404C86.9536 113.655 86.4972 114.055 86.1774 114.557C85.8575 115.059 85.6875 115.641 85.6873 116.236V146.639C85.6837 147.234 85.8518 147.818 86.1715 148.32C86.4913 148.822 86.9491 149.221 87.49 149.469C87.9059 149.665 88.3598 149.766 88.8194 149.767C89.553 149.766 90.2624 149.505 90.8221 149.031C98.22 142.826 105.907 141.305 109.125 140.933V147.789C109.124 148.303 109.251 148.81 109.494 149.264C109.737 149.717 110.088 150.104 110.516 150.389L112.664 151.82C113.08 152.098 113.558 152.272 114.055 152.326C114.553 152.381 115.057 152.315 115.524 152.135C115.991 151.954 116.408 151.664 116.739 151.289C117.071 150.913 117.307 150.464 117.428 149.978L119.741 140.728C121.991 140.425 124.055 139.316 125.55 137.608C127.046 135.9 127.872 133.708 127.875 131.437V131.437ZM114.397 149.22L112.25 147.789V140.812H116.499L114.397 149.22ZM118.5 137.687H112.25V125.187H118.5C120.158 125.187 121.747 125.846 122.919 127.018C124.092 128.19 124.75 129.78 124.75 131.437C124.75 133.095 124.092 134.685 122.919 135.857C121.747 137.029 120.158 137.687 118.5 137.687Z" fill="#30A6C3"/>
<defs>
<linearGradient id="paint0_linear_121_1396" x1="9408.48" y1="13967.8" x2="22556.3" y2="13967.8" gradientUnits="userSpaceOnUse">
<stop stop-color="#2FA6C3"/>
<stop offset="1" stop-color="#6A82FB"/>
</linearGradient>
</defs>
</svg>
