<svg display="none" xmlns="http://www.w3.org/2000/svg">
    <symbol id="icon-telegram" viewBox="0 0 28 28">
        <g>
            <path fill-rule="evenodd" clip-rule="evenodd"
                d="M14 28C21.732 28 28 21.732 28 14C28 6.26801 21.732 0 14 0C6.26801 0 0 6.26801 0 14C0 21.732 6.26801 28 14 28ZM11.4336 20.4164C11.7741 20.4164 11.9297 20.2649 12.1178 20.0818L12.1336 20.0664L13.8148 18.4316L17.3131 21.0162C17.9569 21.3714 18.4216 21.1875 18.582 20.4184L20.8786 9.59606C21.1137 8.65337 20.5192 8.22581 19.9033 8.50543L6.4178 13.7054C5.49728 14.0746 5.50265 14.5882 6.25001 14.817L9.71069 15.8971L17.7225 10.8425C18.1008 10.6132 18.4479 10.7365 18.163 10.9894L11.6711 16.8478L11.6718 16.8482L11.4336 20.4164Z" />
        </g>
    </symbol>

    <symbol id="icon-instagram" viewBox="0 0 29 28">
        <g>
            <path fill-rule="evenodd" clip-rule="evenodd"
                d="M14.0664 0C6.33442 0 0.0664062 6.26801 0.0664062 14C0.0664062 21.732 6.33442 28 14.0664 28C21.7984 28 28.0664 21.732 28.0664 14C28.0664 6.26801 21.7984 0 14.0664 0ZM10.9882 6.57831C11.7846 6.54207 12.0391 6.5332 14.067 6.5332H14.0646C16.0931 6.5332 16.3467 6.54207 17.1431 6.57831C17.938 6.61472 18.4809 6.74056 18.9569 6.92521C19.4485 7.11576 19.8638 7.37088 20.2792 7.78622C20.6945 8.20124 20.9496 8.61782 21.1409 9.10892C21.3245 9.58368 21.4505 10.1263 21.4878 10.9212C21.5236 11.7176 21.5329 11.9721 21.5329 13.9999C21.5329 16.0278 21.5236 16.2817 21.4878 17.0781C21.4505 17.8727 21.3245 18.4154 21.1409 18.8904C20.9496 19.3813 20.6945 19.7979 20.2792 20.2129C19.8643 20.6282 19.4483 20.884 18.9574 21.0747C18.4823 21.2593 17.9391 21.3852 17.1442 21.4216C16.3478 21.4578 16.094 21.4667 14.066 21.4667C12.0384 21.4667 11.784 21.4578 10.9876 21.4216C10.1928 21.3852 9.65009 21.2593 9.17501 21.0747C8.68423 20.884 8.26765 20.6282 7.85278 20.2129C7.4376 19.7979 7.18248 19.3813 6.99161 18.8902C6.80712 18.4154 6.68128 17.8729 6.64472 17.078C6.60863 16.2815 6.59961 16.0278 6.59961 13.9999C6.59961 11.9721 6.60894 11.7175 6.64457 10.921C6.68034 10.1264 6.80634 9.58368 6.99146 9.10876C7.18279 8.61782 7.43791 8.20124 7.85324 7.78622C8.26827 7.37103 8.68485 7.11592 9.17595 6.92521C9.65071 6.74056 10.1933 6.61472 10.9882 6.57831Z" />
            <path fill-rule="evenodd" clip-rule="evenodd"
                d="M13.3967 7.87882C13.5267 7.87862 13.6666 7.87868 13.8176 7.87875L14.0665 7.87882C16.0601 7.87882 16.2964 7.88598 17.0837 7.92175C17.8117 7.95504 18.2068 8.07669 18.47 8.17889C18.8184 8.31422 19.0669 8.476 19.3281 8.73734C19.5894 8.99868 19.7512 9.24757 19.8868 9.59602C19.989 9.85891 20.1108 10.254 20.144 10.982C20.1797 11.7691 20.1875 12.0056 20.1875 13.9983C20.1875 15.991 20.1797 16.2274 20.144 17.0145C20.1107 17.7425 19.989 18.1377 19.8868 18.4006C19.7515 18.749 19.5894 18.9971 19.3281 19.2583C19.0667 19.5196 18.8186 19.6814 18.47 19.8167C18.2071 19.9194 17.8117 20.0407 17.0837 20.074C16.2966 20.1098 16.0601 20.1176 14.0665 20.1176C12.0727 20.1176 11.8364 20.1098 11.0493 20.074C10.3213 20.0404 9.92618 19.9188 9.66282 19.8166C9.31437 19.6813 9.06548 19.5195 8.80414 19.2581C8.54281 18.9968 8.38103 18.7485 8.24538 18.3999C8.14318 18.137 8.02138 17.7419 7.98825 17.0139C7.95247 16.2268 7.94531 15.9903 7.94531 13.9964C7.94531 12.0025 7.95247 11.7673 7.98825 10.9802C8.02154 10.2522 8.14318 9.85704 8.24538 9.59384C8.38072 9.24539 8.54281 8.9965 8.80414 8.73516C9.06548 8.47383 9.31437 8.31205 9.66282 8.1764C9.92602 8.07373 10.3213 7.9524 11.0493 7.91895C11.7381 7.88784 12.005 7.87851 13.3967 7.87695V7.87882ZM18.0523 9.11848C17.5576 9.11848 17.1562 9.51935 17.1562 10.0142C17.1562 10.5088 17.5576 10.9102 18.0523 10.9102C18.5469 10.9102 18.9483 10.5088 18.9483 10.0142C18.9483 9.5195 18.5469 9.11816 18.0523 9.11816V9.11848ZM10.2324 14C10.2324 11.8825 11.9492 10.1656 14.0668 10.1655C16.1844 10.1655 17.9008 11.8824 17.9008 14C17.9008 16.1176 16.1845 17.8337 14.0669 17.8337C11.9493 17.8337 10.2324 16.1176 10.2324 14Z" />
            <path fill-rule="evenodd" clip-rule="evenodd"
                d="M14.067 11.5113C15.4415 11.5113 16.556 12.6255 16.556 14.0002C16.556 15.3747 15.4415 16.4891 14.067 16.4891C12.6924 16.4891 11.5781 15.3747 11.5781 14.0002C11.5781 12.6255 12.6924 11.5113 14.067 11.5113V11.5113Z" />
        </g>
    </symbol>

    <symbol id="icon-whatsapp" viewBox="0 0 29 28">
        <g>
            <path fill-rule="evenodd" clip-rule="evenodd"
                d="M28.5332 14C28.5332 21.732 22.2652 28 14.5332 28C6.80122 28 0.533203 21.732 0.533203 14C0.533203 6.26801 6.80122 0 14.5332 0C22.2652 0 28.5332 6.26801 28.5332 14ZM14.991 21.7889H14.9944C19.5843 21.7871 23.3174 18.0531 23.3192 13.4642C23.3201 11.2398 22.455 9.14828 20.8832 7.57479C19.3115 6.00122 17.2213 5.13426 14.9943 5.1333C10.4058 5.1333 6.67123 8.86762 6.6694 13.4576C6.66878 14.9248 7.05212 16.3569 7.78063 17.6195L6.59961 21.9333L11.0127 20.7756C12.2287 21.4389 13.5977 21.7885 14.991 21.7889Z"
            />
            <path fill-rule="evenodd" clip-rule="evenodd"
                d="M11.4691 19.4182L11.2165 19.2682L8.59765 19.9552L9.29665 17.4019L9.13213 17.1401C8.4395 16.0385 8.07368 14.7652 8.07422 13.4578C8.07573 9.64279 11.1797 6.53906 14.9964 6.53906C16.8445 6.5397 18.5818 7.26033 19.8882 8.56822C21.1945 9.87611 21.9136 11.6145 21.9128 13.4634C21.9113 17.2786 18.8074 20.3827 14.9937 20.3827H14.9909C13.7492 20.3822 12.5315 20.0486 11.4691 19.4182ZM18.9029 15.2566C19.0479 15.3267 19.1459 15.3741 19.1877 15.4439C19.2397 15.5306 19.2397 15.9471 19.0665 16.4331C18.8931 16.919 18.0621 17.3624 17.6624 17.4221C17.304 17.4757 16.8505 17.498 16.3523 17.3397C16.0501 17.2438 15.6627 17.1159 15.1664 16.9015C13.2164 16.0595 11.8986 14.1695 11.6495 13.8123C11.632 13.7873 11.6198 13.7698 11.613 13.7607L11.6113 13.7584C11.5013 13.6115 10.7637 12.6274 10.7637 11.6089C10.7637 10.6507 11.2343 10.1485 11.451 9.91735C11.4658 9.90151 11.4795 9.88695 11.4917 9.87359C11.6824 9.66534 11.9077 9.61328 12.0464 9.61328C12.185 9.61328 12.3239 9.61456 12.4451 9.62065C12.46 9.6214 12.4756 9.62131 12.4916 9.62122C12.6129 9.6205 12.764 9.61962 12.9131 9.97772C12.9704 10.1155 13.0543 10.3198 13.1428 10.5353C13.3218 10.9711 13.5196 11.4525 13.5544 11.5222C13.6064 11.6263 13.6411 11.7478 13.5717 11.8866C13.5613 11.9075 13.5517 11.9271 13.5425 11.9459C13.4904 12.0522 13.4521 12.1304 13.3637 12.2336C13.329 12.2742 13.2931 12.318 13.2571 12.3617C13.1856 12.4488 13.114 12.536 13.0517 12.5981C12.9476 12.7018 12.8392 12.8143 12.9605 13.0226C13.0818 13.2308 13.4993 13.912 14.1177 14.4635C14.7824 15.0564 15.3601 15.307 15.653 15.4341C15.7102 15.4589 15.7565 15.479 15.7905 15.496C15.9984 15.6001 16.1197 15.5827 16.2411 15.4439C16.3624 15.3051 16.7611 14.8365 16.8997 14.6283C17.0384 14.4201 17.1771 14.4548 17.3677 14.5242C17.5584 14.5937 18.5811 15.0968 18.7891 15.2009C18.8297 15.2213 18.8677 15.2396 18.9029 15.2566Z"
            />
        </g>
    </symbol>

    <symbol id="icon-arrow-top" viewBox="0 0 34 34">
        <g>
            <rect y="34" width="34" height="34" rx="17" transform="rotate(-90 0 34)" />
            <path d="M11.6973 18.9225L17.0373 13.5825L22.3772 18.9225" stroke="white"
                stroke-width="1.4" stroke-linecap="round" />
        </g>
    </symbol>

    <symbol id="icon-arrow-left" viewBox="0 0 28 28">
        <g>
            <rect width="28" height="28" rx="14" />
            <path d="M15.2883 9.63281L10.8906 14.0304L15.2883 18.4281" stroke="#838383"
                stroke-width="1.4" stroke-linecap="round" />
        </g>
    </symbol>

    <symbol id="icon-arrow-right" viewBox="0 0 28 28">
        <g>
            <rect width="28" height="28" rx="14" />
            <path d="M12.4168 9.63281L16.8145 14.0304L12.4168 18.4281" stroke="#838383"
                stroke-width="1.4" stroke-linecap="round" />
        </g>
    </symbol>

    <symbol id="icon-slide-prev" viewBox="0 0 28 28">
        <g>
            <rect width="28" height="28" rx="14" />
            <path d="M15.2883 9.63281L10.8906 14.0304L15.2883 18.4281" stroke="#838383"
                stroke-width="1.4" stroke-linecap="round" />
        </g>
    </symbol>

    <symbol id="icon-slide-next" viewBox="0 0 28 28">
        <g>
            <rect width="28" height="28" rx="14" />
            <path d="M12.4168 9.63281L16.8145 14.0304L12.4168 18.4281" stroke="#838383"
                stroke-width="1.4" stroke-linecap="round" />
        </g>
    </symbol>

    <symbol id="icon-feedback-tel" viewBox="0 0 24 25">
        <g>
            <path
                d="M14.9453 4.25C16.2167 4.59194 17.376 5.26196 18.307 6.19294C19.238 7.12392 19.908 8.28319 20.2499 9.55462"
                stroke="#343434" stroke-width="1.5" stroke-linecap="round" stroke-linejoin="round" />
            <path
                d="M14.1687 7.14844C14.9316 7.3536 15.6271 7.75561 16.1857 8.3142C16.7443 8.87279 17.1463 9.56835 17.3515 10.3312"
                stroke="#343434" stroke-width="1.5" stroke-linecap="round" stroke-linejoin="round" />
            <path
                d="M8.66965 12.2014C9.44762 13.7919 10.7369 15.0753 12.3309 15.846C12.4475 15.9013 12.5765 15.9252 12.7052 15.9155C12.8339 15.9058 12.9579 15.8627 13.0648 15.7905L15.4119 14.2254C15.5157 14.1562 15.6352 14.1139 15.7594 14.1025C15.8837 14.0911 16.0088 14.1109 16.1235 14.16L20.5144 16.0419C20.6636 16.1052 20.7881 16.2154 20.8693 16.3556C20.9504 16.4959 20.9838 16.6588 20.9643 16.8197C20.8255 17.9057 20.2956 18.9039 19.4739 19.6273C18.6521 20.3508 17.5948 20.7499 16.5 20.75C13.1185 20.75 9.87548 19.4067 7.48439 17.0156C5.0933 14.6245 3.75 11.3815 3.75 7.99997C3.75006 6.90513 4.14918 5.84786 4.87264 5.0261C5.5961 4.20435 6.59428 3.67448 7.68028 3.53569C7.84117 3.51622 8.00403 3.54956 8.14432 3.6307C8.28461 3.71183 8.39473 3.83636 8.4581 3.98552L10.3416 8.38032C10.3903 8.494 10.4101 8.61796 10.3994 8.74116C10.3886 8.86436 10.3475 8.98299 10.2798 9.08647L8.72011 11.4696C8.64912 11.5768 8.60716 11.7006 8.59831 11.8288C8.58947 11.9571 8.61405 12.0855 8.66965 12.2014V12.2014Z"
                stroke="#343434" stroke-width="1.5" stroke-linecap="round" stroke-linejoin="round" />
        </g>
    </symbol>

    <symbol id="icon-feedback-name" viewBox="0 0 24 25">
        <g>
            <path
                d="M12 15.5C15.3137 15.5 18 12.8137 18 9.5C18 6.18629 15.3137 3.5 12 3.5C8.68629 3.5 6 6.18629 6 9.5C6 12.8137 8.68629 15.5 12 15.5Z"
                stroke="#343434" stroke-width="1.5" stroke-miterlimit="10" />
            <path
                d="M2.90527 20.7491C3.82736 19.1531 5.15322 17.8278 6.74966 16.9064C8.34611 15.985 10.1569 15.5 12.0002 15.5C13.8434 15.5 15.6542 15.9851 17.2506 16.9065C18.8471 17.8279 20.1729 19.1533 21.0949 20.7493"
                stroke="#343434" stroke-width="1.5" stroke-linecap="round" stroke-linejoin="round" />
        </g>
    </symbol>

    <symbol id="icon-chevron" viewBox="0 0 24 24">
        <g>
            <path d="M15.4023 6L9.45544 12L15.4023 18" stroke="#343434" stroke-width="2"
                stroke-linecap="round"
                stroke-linejoin="round" />
        </g>
    </symbol>

    <symbol id="icon-chevrons" viewBox="0 0 24 24">
        <g>
            <path d="M10.7363 17L5.78058 12L10.7363 7" stroke="#343434" stroke-width="2"
                stroke-linecap="round" stroke-linejoin="round" />
            <path d="M17.6738 17L12.7181 12L17.6738 7" stroke="#343434" stroke-width="2"
                stroke-linecap="round" stroke-linejoin="round" />
        </g>
    </symbol>

    <symbol id="icon-close" viewBox="0 0 26 25">
        <g>
            <path
                d="M15.8199 12.1413L24.4199 3.65459C24.7965 3.28208 25.0081 2.77684 25.0081 2.25003C25.0081 1.72321 24.7965 1.21798 24.4199 0.845462C24.0433 0.472948 23.5325 0.263672 22.9999 0.263672C22.4673 0.263672 21.9565 0.472948 21.5799 0.845462L12.9999 9.35198L4.41988 0.845462C4.04327 0.472948 3.53248 0.263672 2.99988 0.263672C2.46727 0.263672 1.95649 0.472948 1.57988 0.845462C1.20327 1.21798 0.991694 1.72321 0.991694 2.25003C0.991694 2.77684 1.20327 3.28208 1.57988 3.65459L10.1799 12.1413L1.57988 20.6281C1.39242 20.812 1.24363 21.0308 1.1421 21.2718C1.04056 21.5129 0.988281 21.7715 0.988281 22.0326C0.988281 22.2938 1.04056 22.5524 1.1421 22.7934C1.24363 23.0345 1.39242 23.2533 1.57988 23.4372C1.7658 23.6226 1.98701 23.7698 2.23072 23.8702C2.47444 23.9707 2.73585 24.0224 2.99988 24.0224C3.2639 24.0224 3.52531 23.9707 3.76903 23.8702C4.01275 23.7698 4.23395 23.6226 4.41988 23.4372L12.9999 14.9307L21.5799 23.4372C21.7658 23.6226 21.987 23.7698 22.2307 23.8702C22.4744 23.9707 22.7359 24.0224 22.9999 24.0224C23.2639 24.0224 23.5253 23.9707 23.769 23.8702C24.0128 23.7698 24.2339 23.6226 24.4199 23.4372C24.6073 23.2533 24.7561 23.0345 24.8577 22.7934C24.9592 22.5524 25.0115 22.2938 25.0115 22.0326C25.0115 21.7715 24.9592 21.5129 24.8577 21.2718C24.7561 21.0308 24.6073 20.812 24.4199 20.6281L15.8199 12.1413Z"
                fill="#343434" />
        </g>
    </symbol>

    <symbol id="icon-mail" viewBox="0 0 21 20">
        <g>
            <path
                d="M16.2666 7.06152L12.0012 10.4958C11.194 11.1287 10.0624 11.1287 9.25518 10.4958L4.95312 7.06152"
                stroke="#449EF6" stroke-width="1.5" stroke-linecap="round" stroke-linejoin="round" />
            <path fill-rule="evenodd" clip-rule="evenodd"
                d="M5.88787 1.5H15.3158C16.6752 1.51525 17.969 2.08993 18.896 3.0902C19.823 4.09048 20.3022 5.42903 20.222 6.79412V13.322C20.3022 14.6871 19.823 16.0256 18.896 17.0259C17.969 18.0262 16.6752 18.6009 15.3158 18.6161H5.88787C2.96796 18.6161 1 16.2407 1 13.322V6.79412C1 3.87545 2.96796 1.5 5.88787 1.5Z"
                stroke="#449EF6" stroke-width="1.5" stroke-linecap="round" stroke-linejoin="round" />
        </g>
    </symbol>

    <symbol id="icon-call" viewBox="0 0 22 22">
        <g>
            <path fill-rule="evenodd" clip-rule="evenodd"
                d="M1.99033 3.87254C2.30665 3.34878 4.0495 1.44376 5.29322 1.50127C5.665 1.53208 5.99364 1.75699 6.26067 2.01784C6.87379 2.61656 8.62897 4.88101 8.72859 5.35753C8.97096 6.52621 7.57833 7.1999 8.00454 8.37783C9.09112 11.0366 10.9634 12.9088 13.6233 13.9943C14.8003 14.4205 15.474 13.0279 16.6428 13.2713C17.1183 13.3709 19.3839 15.126 19.9826 15.7391C20.2425 16.0051 20.4684 16.3347 20.4992 16.7065C20.5454 18.0159 18.5222 19.7833 18.1278 20.0092C17.1974 20.6747 15.9834 20.6634 14.5035 19.9753C10.3739 18.2572 3.77426 11.7822 2.02422 7.49669C1.35461 6.02505 1.30839 4.80297 1.99033 3.87254Z"
                stroke="#449EF6" stroke-width="1.5" stroke-linecap="round" stroke-linejoin="round" />
        </g>
    </symbol>

    <symbol id="icon-address" viewBox="0 0 18 21">
        <g>
            <path fill-rule="evenodd" clip-rule="evenodd"
                d="M1.24219 9.39136C1.25659 5.15077 4.70595 1.72477 8.94654 1.73918C13.1871 1.75359 16.6131 5.20294 16.5987 9.44353V9.53049C16.5465 12.287 15.0074 14.8348 13.1204 16.8261C12.0413 17.9468 10.8362 18.9389 9.52914 19.7827C9.17965 20.085 8.66125 20.085 8.31175 19.7827C6.36326 18.5144 4.65312 16.9132 3.25958 15.0522C2.01754 13.4294 1.31235 11.4598 1.24219 9.41744L1.24219 9.39136Z"
                stroke="#449EF6" stroke-width="1.5" stroke-linecap="round" stroke-linejoin="round" />
            <circle cx="8.92181" cy="9.53887" r="2.46087" stroke="#449EF6" stroke-width="1.5"
                stroke-linecap="round" stroke-linejoin="round" />
        </g>
    </symbol>

    <symbol id="icon-header-call" viewBox="0 0 32 32">
        <g>
            <path
                d="M19.928 5.00241C21.6232 5.45833 23.1689 6.35169 24.4102 7.593C25.6515 8.83431 26.5449 10.38 27.0008 12.0752"
                stroke="#343434" stroke-width="2" stroke-linecap="round" stroke-linejoin="round" />
            <path
                d="M18.8926 8.86539C19.9097 9.13894 20.8371 9.67495 21.5819 10.4197C22.3267 11.1645 22.8627 12.0919 23.1363 13.1091"
                stroke="#343434" stroke-width="2" stroke-linecap="round" stroke-linejoin="round" />
            <path
                d="M11.5595 15.6C12.5968 17.7206 14.3158 19.4318 16.4412 20.4594C16.5967 20.5331 16.7687 20.5651 16.9403 20.5521C17.1119 20.5391 17.2771 20.4817 17.4198 20.3854L20.5492 18.2986C20.6877 18.2063 20.8469 18.15 21.0126 18.1348C21.1782 18.1196 21.3451 18.1459 21.498 18.2115L27.3526 20.7206C27.5515 20.8051 27.7175 20.9519 27.8257 21.139C27.9339 21.326 27.9783 21.5432 27.9524 21.7577C27.7673 23.2057 27.0608 24.5366 25.9652 25.5012C24.8695 26.4658 23.4598 26.998 22 26.998C17.4913 26.998 13.1673 25.207 9.97919 22.0189C6.79107 18.8307 5 14.5067 5 9.99805C5.00008 8.53826 5.53224 7.12856 6.49685 6.03289C7.46146 4.93722 8.79237 4.23072 10.2404 4.04567C10.4549 4.01971 10.672 4.06417 10.8591 4.17235C11.0461 4.28053 11.193 4.44657 11.2775 4.64545L13.7888 10.5052C13.8537 10.6568 13.8802 10.822 13.8658 10.9863C13.8514 11.1506 13.7967 11.3087 13.7064 11.4467L11.6268 14.6242C11.5322 14.7671 11.4762 14.9322 11.4644 15.1032C11.4526 15.2742 11.4854 15.4454 11.5595 15.6V15.6Z"
                stroke="#343434" stroke-width="2" stroke-linecap="round" stroke-linejoin="round" />
        </g>
    </symbol>

    <symbol id="icon-arrow-top" viewBox="0 0 32 32">
        <g>
            <svg width="24" height="15" viewBox="0 0 24 15" fill="none"
                xmlns="http://www.w3.org/2000/svg">
                <path d="M21.3782 12.192111.9728 2.462412.56738 12.1921" stroke="white"
                    stroke-width="4"
                    stroke-linecap="round" stroke-linejoin="round"></path>
            </svg>
        </g>
    </symbol>
</svg>