<svg display="none" xmlns="http://www.w3.org/2000/svg">
    <symbol id="icon-telegram" viewBox="0 0 28 28">
        <g>
            <path fill-rule="evenodd" clip-rule="evenodd"
                d="M14 28C21.732 28 28 21.732 28 14C28 6.26801 21.732 0 14 0C6.26801 0 0 6.26801 0 14C0 21.732 6.26801 28 14 28ZM11.4336 20.4164C11.7741 20.4164 11.9297 20.2649 12.1178 20.0818L12.1336 20.0664L13.8148 18.4316L17.3131 21.0162C17.9569 21.3714 18.4216 21.1875 18.582 20.4184L20.8786 9.59606C21.1137 8.65337 20.5192 8.22581 19.9033 8.50543L6.4178 13.7054C5.49728 14.0746 5.50265 14.5882 6.25001 14.817L9.71069 15.8971L17.7225 10.8425C18.1008 10.6132 18.4479 10.7365 18.163 10.9894L11.6711 16.8478L11.6718 16.8482L11.4336 20.4164Z" />
        </g>
    </symbol>

    <symbol id="icon-instagram" viewBox="0 0 29 28">
        <g>
            <path fill-rule="evenodd" clip-rule="evenodd"
                d="M14.0664 0C6.33442 0 0.0664062 6.26801 0.0664062 14C0.0664062 21.732 6.33442 28 14.0664 28C21.7984 28 28.0664 21.732 28.0664 14C28.0664 6.26801 21.7984 0 14.0664 0ZM10.9882 6.57831C11.7846 6.54207 12.0391 6.5332 14.067 6.5332H14.0646C16.0931 6.5332 16.3467 6.54207 17.1431 6.57831C17.938 6.61472 18.4809 6.74056 18.9569 6.92521C19.4485 7.11576 19.8638 7.37088 20.2792 7.78622C20.6945 8.20124 20.9496 8.61782 21.1409 9.10892C21.3245 9.58368 21.4505 10.1263 21.4878 10.9212C21.5236 11.7176 21.5329 11.9721 21.5329 13.9999C21.5329 16.0278 21.5236 16.2817 21.4878 17.0781C21.4505 17.8727 21.3245 18.4154 21.1409 18.8904C20.9496 19.3813 20.6945 19.7979 20.2792 20.2129C19.8643 20.6282 19.4483 20.884 18.9574 21.0747C18.4823 21.2593 17.9391 21.3852 17.1442 21.4216C16.3478 21.4578 16.094 21.4667 14.066 21.4667C12.0384 21.4667 11.784 21.4578 10.9876 21.4216C10.1928 21.3852 9.65009 21.2593 9.17501 21.0747C8.68423 20.884 8.26765 20.6282 7.85278 20.2129C7.4376 19.7979 7.18248 19.3813 6.99161 18.8902C6.80712 18.4154 6.68128 17.8729 6.64472 17.078C6.60863 16.2815 6.59961 16.0278 6.59961 13.9999C6.59961 11.9721 6.60894 11.7175 6.64457 10.921C6.68034 10.1264 6.80634 9.58368 6.99146 9.10876C7.18279 8.61782 7.43791 8.20124 7.85324 7.78622C8.26827 7.37103 8.68485 7.11592 9.17595 6.92521C9.65071 6.74056 10.1933 6.61472 10.9882 6.57831Z" />
            <path fill-rule="evenodd" clip-rule="evenodd"
                d="M13.3967 7.87882C13.5267 7.87862 13.6666 7.87868 13.8176 7.87875L14.0665 7.87882C16.0601 7.87882 16.2964 7.88598 17.0837 7.92175C17.8117 7.95504 18.2068 8.07669 18.47 8.17889C18.8184 8.31422 19.0669 8.476 19.3281 8.73734C19.5894 8.99868 19.7512 9.24757 19.8868 9.59602C19.989 9.85891 20.1108 10.254 20.144 10.982C20.1797 11.7691 20.1875 12.0056 20.1875 13.9983C20.1875 15.991 20.1797 16.2274 20.144 17.0145C20.1107 17.7425 19.989 18.1377 19.8868 18.4006C19.7515 18.749 19.5894 18.9971 19.3281 19.2583C19.0667 19.5196 18.8186 19.6814 18.47 19.8167C18.2071 19.9194 17.8117 20.0407 17.0837 20.074C16.2966 20.1098 16.0601 20.1176 14.0665 20.1176C12.0727 20.1176 11.8364 20.1098 11.0493 20.074C10.3213 20.0404 9.92618 19.9188 9.66282 19.8166C9.31437 19.6813 9.06548 19.5195 8.80414 19.2581C8.54281 18.9968 8.38103 18.7485 8.24538 18.3999C8.14318 18.137 8.02138 17.7419 7.98825 17.0139C7.95247 16.2268 7.94531 15.9903 7.94531 13.9964C7.94531 12.0025 7.95247 11.7673 7.98825 10.9802C8.02154 10.2522 8.14318 9.85704 8.24538 9.59384C8.38072 9.24539 8.54281 8.9965 8.80414 8.73516C9.06548 8.47383 9.31437 8.31205 9.66282 8.1764C9.92602 8.07373 10.3213 7.9524 11.0493 7.91895C11.7381 7.88784 12.005 7.87851 13.3967 7.87695V7.87882ZM18.0523 9.11848C17.5576 9.11848 17.1562 9.51935 17.1562 10.0142C17.1562 10.5088 17.5576 10.9102 18.0523 10.9102C18.5469 10.9102 18.9483 10.5088 18.9483 10.0142C18.9483 9.5195 18.5469 9.11816 18.0523 9.11816V9.11848ZM10.2324 14C10.2324 11.8825 11.9492 10.1656 14.0668 10.1655C16.1844 10.1655 17.9008 11.8824 17.9008 14C17.9008 16.1176 16.1845 17.8337 14.0669 17.8337C11.9493 17.8337 10.2324 16.1176 10.2324 14Z" />
            <path fill-rule="evenodd" clip-rule="evenodd"
                d="M14.067 11.5113C15.4415 11.5113 16.556 12.6255 16.556 14.0002C16.556 15.3747 15.4415 16.4891 14.067 16.4891C12.6924 16.4891 11.5781 15.3747 11.5781 14.0002C11.5781 12.6255 12.6924 11.5113 14.067 11.5113V11.5113Z" />
        </g>
    </symbol>

    <symbol id="icon-whatsapp" viewBox="0 0 29 28">
        <g>
            <path fill-rule="evenodd" clip-rule="evenodd"
                d="M28.5332 14C28.5332 21.732 22.2652 28 14.5332 28C6.80122 28 0.533203 21.732 0.533203 14C0.533203 6.26801 6.80122 0 14.5332 0C22.2652 0 28.5332 6.26801 28.5332 14ZM14.991 21.7889H14.9944C19.5843 21.7871 23.3174 18.0531 23.3192 13.4642C23.3201 11.2398 22.455 9.14828 20.8832 7.57479C19.3115 6.00122 17.2213 5.13426 14.9943 5.1333C10.4058 5.1333 6.67123 8.86762 6.6694 13.4576C6.66878 14.9248 7.05212 16.3569 7.78063 17.6195L6.59961 21.9333L11.0127 20.7756C12.2287 21.4389 13.5977 21.7885 14.991 21.7889Z"
            />
            <path fill-rule="evenodd" clip-rule="evenodd"
                d="M11.4691 19.4182L11.2165 19.2682L8.59765 19.9552L9.29665 17.4019L9.13213 17.1401C8.4395 16.0385 8.07368 14.7652 8.07422 13.4578C8.07573 9.64279 11.1797 6.53906 14.9964 6.53906C16.8445 6.5397 18.5818 7.26033 19.8882 8.56822C21.1945 9.87611 21.9136 11.6145 21.9128 13.4634C21.9113 17.2786 18.8074 20.3827 14.9937 20.3827H14.9909C13.7492 20.3822 12.5315 20.0486 11.4691 19.4182ZM18.9029 15.2566C19.0479 15.3267 19.1459 15.3741 19.1877 15.4439C19.2397 15.5306 19.2397 15.9471 19.0665 16.4331C18.8931 16.919 18.0621 17.3624 17.6624 17.4221C17.304 17.4757 16.8505 17.498 16.3523 17.3397C16.0501 17.2438 15.6627 17.1159 15.1664 16.9015C13.2164 16.0595 11.8986 14.1695 11.6495 13.8123C11.632 13.7873 11.6198 13.7698 11.613 13.7607L11.6113 13.7584C11.5013 13.6115 10.7637 12.6274 10.7637 11.6089C10.7637 10.6507 11.2343 10.1485 11.451 9.91735C11.4658 9.90151 11.4795 9.88695 11.4917 9.87359C11.6824 9.66534 11.9077 9.61328 12.0464 9.61328C12.185 9.61328 12.3239 9.61456 12.4451 9.62065C12.46 9.6214 12.4756 9.62131 12.4916 9.62122C12.6129 9.6205 12.764 9.61962 12.9131 9.97772C12.9704 10.1155 13.0543 10.3198 13.1428 10.5353C13.3218 10.9711 13.5196 11.4525 13.5544 11.5222C13.6064 11.6263 13.6411 11.7478 13.5717 11.8866C13.5613 11.9075 13.5517 11.9271 13.5425 11.9459C13.4904 12.0522 13.4521 12.1304 13.3637 12.2336C13.329 12.2742 13.2931 12.318 13.2571 12.3617C13.1856 12.4488 13.114 12.536 13.0517 12.5981C12.9476 12.7018 12.8392 12.8143 12.9605 13.0226C13.0818 13.2308 13.4993 13.912 14.1177 14.4635C14.7824 15.0564 15.3601 15.307 15.653 15.4341C15.7102 15.4589 15.7565 15.479 15.7905 15.496C15.9984 15.6001 16.1197 15.5827 16.2411 15.4439C16.3624 15.3051 16.7611 14.8365 16.8997 14.6283C17.0384 14.4201 17.1771 14.4548 17.3677 14.5242C17.5584 14.5937 18.5811 15.0968 18.7891 15.2009C18.8297 15.2213 18.8677 15.2396 18.9029 15.2566Z"
            />
        </g>
    </symbol>

    <symbol id="icon-arrow-top" viewBox="0 0 34 34">
        <g>
            <rect y="34" width="34" height="34" rx="17" transform="rotate(-90 0 34)" />
            <path d="M11.6973 18.9225L17.0373 13.5825L22.3772 18.9225" stroke="white"
                stroke-width="1.4" stroke-linecap="round" />
        </g>
    </symbol>

    <symbol id="icon-arrow-left" viewBox="0 0 28 28">
        <g>
            <rect width="28" height="28" rx="14" />
            <path d="M15.2883 9.63281L10.8906 14.0304L15.2883 18.4281" stroke="#838383"
                stroke-width="1.4" stroke-linecap="round" />
        </g>
    </symbol>

    <symbol id="icon-arrow-right" viewBox="0 0 28 28">
        <g>
            <rect width="28" height="28" rx="14" />
            <path d="M12.4168 9.63281L16.8145 14.0304L12.4168 18.4281" stroke="#838383"
                stroke-width="1.4" stroke-linecap="round" />
        </g>
    </symbol>

    <symbol id="icon-slide-prev" viewBox="0 0 28 28">
        <g>
            <rect width="28" height="28" rx="14" />
            <path d="M15.2883 9.63281L10.8906 14.0304L15.2883 18.4281" stroke="#838383"
                stroke-width="1.4" stroke-linecap="round" />
        </g>
    </symbol>

    <symbol id="icon-slide-next" viewBox="0 0 28 28">
        <g>
            <rect width="28" height="28" rx="14" />
            <path d="M12.4168 9.63281L16.8145 14.0304L12.4168 18.4281" stroke="#838383"
                stroke-width="1.4" stroke-linecap="round" />
        </g>
    </symbol>
</svg>