<svg width="26" height="25" viewBox="0 0 26 25" fill="none" xmlns="http://www.w3.org/2000/svg">
<path d="M15.8199 12.1413L24.4199 3.65459C24.7965 3.28208 25.0081 2.77684 25.0081 2.25003C25.0081 1.72321 24.7965 1.21798 24.4199 0.845462C24.0433 0.472948 23.5325 0.263672 22.9999 0.263672C22.4673 0.263672 21.9565 0.472948 21.5799 0.845462L12.9999 9.35198L4.41988 0.845462C4.04327 0.472948 3.53248 0.263672 2.99988 0.263672C2.46727 0.263672 1.95649 0.472948 1.57988 0.845462C1.20327 1.21798 0.991694 1.72321 0.991694 2.25003C0.991694 2.77684 1.20327 3.28208 1.57988 3.65459L10.1799 12.1413L1.57988 20.6281C1.39242 20.812 1.24363 21.0308 1.1421 21.2718C1.04056 21.5129 0.988281 21.7715 0.988281 22.0326C0.988281 22.2938 1.04056 22.5524 1.1421 22.7934C1.24363 23.0345 1.39242 23.2533 1.57988 23.4372C1.7658 23.6226 1.98701 23.7698 2.23072 23.8702C2.47444 23.9707 2.73585 24.0224 2.99988 24.0224C3.2639 24.0224 3.52531 23.9707 3.76903 23.8702C4.01275 23.7698 4.23395 23.6226 4.41988 23.4372L12.9999 14.9307L21.5799 23.4372C21.7658 23.6226 21.987 23.7698 22.2307 23.8702C22.4744 23.9707 22.7359 24.0224 22.9999 24.0224C23.2639 24.0224 23.5253 23.9707 23.769 23.8702C24.0128 23.7698 24.2339 23.6226 24.4199 23.4372C24.6073 23.2533 24.7561 23.0345 24.8577 22.7934C24.9592 22.5524 25.0115 22.2938 25.0115 22.0326C25.0115 21.7715 24.9592 21.5129 24.8577 21.2718C24.7561 21.0308 24.6073 20.812 24.4199 20.6281L15.8199 12.1413Z" fill="#343434"/>
</svg>
